<?xml version="1.0" encoding="UTF-8"?>
<svg xmlns="http://www.w3.org/2000/svg" xmlns:xlink="http://www.w3.org/1999/xlink" width="150px" height="92px" viewBox="0 0 149 92" version="1.1">
<defs>
<clipPath id="clip1">
  <path d="M 34 27 L 91 27 L 91 56 L 34 56 Z M 34 27 "/>
</clipPath>
<clipPath id="clip2">
  <path d="M 93.089844 55.597656 L 93.089844 55.597656 M 93.089844 55.597656 C 93.089844 55.597656 93.023438 55.550781 92.910156 55.507812 C 92.976562 55.53125 93.042969 55.574219 93.089844 55.597656 M 34.933594 30.859375 C 39.050781 36.539062 43.453125 42.816406 47.457031 48.9375 C 70.164062 44.21875 90.765625 54.394531 92.910156 55.507812 C 77.132812 47.222656 65.890625 37.136719 58.035156 27.855469 C 49.273438 27.898438 41.570312 29.054688 34.933594 30.859375 "/>
</clipPath>
<linearGradient id="linear0" gradientUnits="userSpaceOnUse" x1="82.842697" y1="698.491516" x2="88.293999" y2="698.491516" gradientTransform="matrix(10.669432,0,0,-10.735144,-851.830683,7540.139713)">
<stop offset="0" style="stop-color:rgb(100%,100%,100%);stop-opacity:1;"/>
<stop offset="0.0470689" style="stop-color:rgb(97.647059%,97.647059%,97.647059%);stop-opacity:1;"/>
<stop offset="0.7023" style="stop-color:rgb(63.529412%,64.313725%,65.098039%);stop-opacity:1;"/>
<stop offset="1" style="stop-color:rgb(50.196078%,50.980392%,52.156863%);stop-opacity:1;"/>
</linearGradient>
</defs>
<g id="surface1">
<path style=" stroke:none;fill-rule:nonzero;fill:rgb(92.941177%,11.372549%,14.117648%);fill-opacity:1;" d="M 142.503906 70.222656 L 142.503906 66.683594 L 141.308594 66.683594 L 141.308594 65.972656 L 144.492188 65.972656 L 144.492188 66.683594 L 143.300781 66.683594 L 143.300781 70.222656 Z M 142.503906 70.222656 "/>
<path style=" stroke:none;fill-rule:nonzero;fill:rgb(92.941177%,11.372549%,14.117648%);fill-opacity:1;" d="M 145.023438 70.222656 L 145.023438 65.972656 L 146.242188 65.972656 L 146.972656 68.886719 L 147.703125 65.972656 L 148.917969 65.972656 L 148.917969 70.222656 L 148.167969 70.222656 L 148.167969 66.863281 L 147.371094 70.222656 L 146.574219 70.222656 L 145.777344 66.863281 L 145.777344 70.222656 Z M 145.023438 70.222656 "/>
<path style=" stroke:none;fill-rule:nonzero;fill:rgb(13.725491%,12.156863%,12.54902%);fill-opacity:1;" d="M 0.101562 22.398438 C 0.101562 22.398438 19.175781 23.601562 41.4375 0 C 41.4375 0 51.796875 34 93.109375 55.574219 C 93.109375 55.574219 25.550781 28.789062 0.898438 91.976562 C 0.898438 92 16.789062 44.398438 0.101562 22.398438 "/>
<path style=" stroke:none;fill-rule:nonzero;fill:rgb(92.941177%,11.372549%,14.117648%);fill-opacity:1;" d="M 58.035156 27.855469 C 45.355469 12.914062 41.4375 0.0234375 41.4375 0.0234375 C 34.910156 6.945312 28.671875 11.710938 23.09375 15.027344 C 26.015625 18.8125 30.285156 24.445312 34.957031 30.859375 C 41.570312 29.054688 49.273438 27.898438 58.035156 27.855469 "/>
<path style=" stroke:none;fill-rule:nonzero;fill:rgb(87.450981%,87.843138%,89.411765%);fill-opacity:1;" d="M 23.074219 15.007812 C 9.617188 22.976562 0.0820312 22.398438 0.0820312 22.398438 C 4.617188 28.367188 6.742188 36.246094 7.449219 44.53125 C 12.5625 40.367188 21.632812 34.398438 34.933594 30.835938 C 30.285156 24.445312 26.015625 18.8125 23.074219 15.007812 "/>
<path style=" stroke:none;fill-rule:nonzero;fill:rgb(92.941177%,11.372549%,14.117648%);fill-opacity:1;" d="M 7.449219 44.554688 C 9.308594 66.773438 0.878906 92 0.878906 92 C 13.335938 63.65625 30.949219 52.367188 47.4375 48.9375 C 43.429688 42.816406 39.027344 36.539062 34.910156 30.859375 C 21.65625 34.421875 12.5625 40.367188 7.449219 44.554688 "/>
<g clip-path="url(#clip1)" clip-rule="nonzero">
<g clip-path="url(#clip2)" clip-rule="nonzero">
<path style=" stroke:none;fill-rule:nonzero;fill:url(#linear0);" d="M 32.058594 27.855469 L 90.210938 27.855469 L 90.210938 55.597656 L 32.058594 55.597656 Z M 32.058594 27.855469 "/>
</g>
</g>
<path style=" stroke:none;fill-rule:nonzero;fill:rgb(92.941177%,11.372549%,14.117648%);fill-opacity:1;" d="M 66.246094 61.875 C 65.539062 61.609375 64.742188 61.585938 63.988281 61.5625 C 63.28125 61.542969 62.550781 61.519531 61.84375 61.519531 C 61.378906 61.519531 60.714844 61.453125 60.46875 61.941406 C 60.402344 62.097656 60.382812 62.253906 60.382812 62.410156 C 60.382812 62.722656 60.402344 63.054688 60.425781 63.367188 C 60.46875 63.769531 60.734375 63.878906 61.113281 63.878906 C 62.042969 63.902344 62.992188 63.722656 63.921875 63.878906 C 64.851562 64.035156 65.804688 64.636719 65.980469 65.550781 C 66.023438 65.726562 66.003906 65.925781 65.847656 66.015625 C 63.546875 66.0625 61.246094 66.0625 58.941406 66.0625 C 57.769531 66.0625 56.597656 66.0625 55.425781 66.0625 C 54.871094 66.0625 54.296875 66.0625 53.742188 66.0625 C 53.167969 66.0625 52.59375 66.015625 52.015625 66.0625 C 51.617188 66.082031 51.484375 65.816406 51.617188 65.4375 C 51.972656 64.414062 53.125 63.902344 54.207031 63.8125 C 55.269531 63.722656 56.355469 63.921875 57.4375 63.8125 C 57.902344 63.769531 57.902344 63.433594 57.902344 63.011719 C 57.902344 62.566406 57.902344 62.121094 57.769531 61.695312 C 57.75 61.628906 57.726562 61.585938 57.683594 61.542969 C 57.617188 61.496094 57.550781 61.472656 57.460938 61.472656 C 55.691406 61.273438 53.832031 61.230469 52.105469 61.71875 C 50.402344 62.210938 48.808594 63.566406 48.652344 65.347656 C 48.632812 65.59375 48.609375 65.859375 48.410156 65.996094 C 48.300781 66.0625 48.167969 66.0625 48.035156 66.0625 C 44.914062 66.0625 41.792969 66.0625 38.652344 66.0625 C 35.554688 66.0625 32.476562 66.0625 29.378906 66.0625 C 28.871094 66.105469 28.582031 65.703125 28.757812 65.214844 C 28.957031 64.679688 29.621094 64.214844 30.132812 64.035156 C 30.796875 63.789062 31.503906 63.789062 32.210938 63.8125 C 34.558594 63.789062 36.945312 63.902344 39.292969 63.789062 C 39.382812 63.746094 39.382812 63.632812 39.402344 63.546875 C 39.46875 63.03125 39.46875 62.519531 39.449219 62.007812 C 39.449219 61.652344 39.183594 61.5625 38.871094 61.5625 C 36.703125 61.542969 34.511719 61.519531 32.34375 61.519531 C 31.480469 61.519531 30.640625 61.496094 29.777344 61.628906 C 28.359375 61.832031 26.96875 62.542969 26.28125 63.855469 C 25.75 64.859375 25.75 65.996094 25.726562 67.109375 C 25.726562 71.425781 25.707031 75.746094 25.726562 80.066406 C 25.75 80.757812 25.707031 80.933594 26.4375 80.980469 C 27.011719 81 27.609375 81.023438 28.183594 80.980469 C 28.425781 80.957031 28.515625 80.890625 28.539062 80.644531 C 28.605469 79.84375 28.558594 79.019531 28.582031 78.195312 C 28.582031 75.234375 28.582031 72.273438 28.582031 69.289062 C 28.582031 68.976562 28.515625 68.554688 28.871094 68.398438 L 31.261719 68.398438 C 31.28125 68.398438 31.28125 68.421875 31.304688 68.421875 C 31.347656 68.464844 31.347656 68.554688 31.347656 68.621094 C 31.347656 69.578125 31.105469 70.445312 31.28125 71.425781 C 31.4375 72.273438 31.878906 73.097656 32.585938 73.585938 C 33.230469 74.03125 34.046875 74.164062 34.800781 74.367188 C 35.972656 74.675781 36.925781 75.324219 36.925781 76.636719 C 37.058594 78.417969 35.355469 78.796875 33.9375 78.753906 C 33.164062 78.753906 32.386719 78.773438 31.613281 78.773438 C 31.328125 78.773438 31.171875 78.863281 31.195312 79.152344 C 31.195312 79.621094 31.195312 80.089844 31.214844 80.554688 C 31.195312 80.890625 31.394531 80.980469 31.679688 80.980469 C 32.917969 81 34.136719 81.046875 35.375 81 C 36.4375 80.957031 37.964844 80.824219 38.738281 79.953125 C 39.46875 79.441406 39.914062 78.617188 40.046875 77.75 C 40.113281 77.328125 40.179688 76.925781 40.222656 76.503906 C 40.378906 75.144531 41.59375 74.253906 42.898438 74.164062 C 43.164062 74.144531 43.34375 74.253906 43.320312 74.523438 C 43.363281 76.4375 43.34375 78.375 43.34375 80.3125 C 43.363281 80.535156 43.296875 80.890625 43.609375 80.957031 C 43.652344 80.980469 43.71875 80.980469 43.785156 80.980469 C 44.472656 80.980469 45.136719 81.023438 45.820312 81 C 46.0625 80.957031 46.152344 80.867188 46.175781 80.621094 C 46.195312 80.355469 46.195312 80.109375 46.195312 79.84375 C 46.195312 77.148438 46.21875 74.453125 46.195312 71.761719 C 46.195312 71.382812 46.195312 70.980469 46.195312 70.601562 C 46.195312 70.023438 46.085938 69.3125 46.195312 68.734375 C 46.21875 68.597656 46.285156 68.488281 46.394531 68.445312 C 46.460938 68.421875 46.550781 68.421875 46.617188 68.421875 C 47.238281 68.421875 47.855469 68.421875 48.476562 68.421875 C 48.519531 68.421875 48.566406 68.421875 48.609375 68.445312 C 48.652344 68.464844 48.675781 68.53125 48.699219 68.578125 C 48.765625 68.867188 48.742188 69.179688 48.742188 69.46875 C 48.742188 69.867188 48.742188 70.246094 48.742188 70.648438 C 48.742188 71.425781 48.742188 72.226562 48.742188 73.007812 C 48.742188 74.589844 48.71875 76.167969 48.71875 77.726562 C 48.71875 78.574219 48.699219 79.421875 48.71875 80.265625 C 48.71875 80.867188 48.765625 80.980469 49.40625 81 C 50.023438 81 50.644531 81.046875 51.265625 80.933594 C 51.484375 80.890625 51.550781 80.800781 51.574219 80.578125 C 51.617188 79.777344 51.574219 78.953125 51.597656 78.152344 C 51.597656 76.570312 51.597656 74.988281 51.597656 73.429688 C 51.597656 72.652344 51.597656 71.851562 51.597656 71.070312 C 51.597656 70.3125 51.550781 69.535156 51.597656 68.777344 C 51.597656 68.6875 51.617188 68.597656 51.664062 68.53125 C 51.796875 68.332031 52.082031 68.375 52.28125 68.375 C 52.503906 68.375 52.746094 68.375 52.96875 68.375 C 53.167969 68.375 53.367188 68.375 53.589844 68.375 C 53.722656 68.375 53.988281 68.332031 54.074219 68.445312 C 54.253906 68.667969 54.140625 69 54.164062 69.246094 C 54.1875 73.03125 54.140625 76.792969 54.140625 80.578125 C 54.1875 80.84375 54.230469 80.910156 54.496094 80.933594 C 54.78125 80.957031 55.070312 80.980469 55.359375 80.980469 C 56.554688 80.980469 57.726562 80.980469 58.921875 80.980469 C 60.734375 80.980469 62.527344 80.980469 64.34375 80.980469 C 64.875 80.980469 65.382812 80.890625 65.914062 80.800781 C 66.269531 80.757812 66.578125 80.578125 66.910156 80.421875 C 67.21875 80.265625 67.53125 80.109375 67.75 79.820312 C 67.773438 79.777344 67.839844 79.753906 67.859375 79.730469 C 68.589844 79.0625 68.96875 78.0625 69.078125 77.105469 C 69.34375 75.167969 68.523438 73.050781 66.601562 72.363281 C 65.605469 71.9375 64.519531 71.917969 63.457031 71.894531 C 62.285156 71.851562 61.113281 71.851562 59.960938 71.894531 C 59.695312 71.894531 59.585938 72.003906 59.5625 72.273438 C 59.519531 72.785156 59.519531 73.273438 59.585938 73.785156 C 59.605469 74.121094 59.828125 74.210938 60.136719 74.210938 C 61.113281 74.210938 62.085938 74.210938 63.058594 74.210938 C 64.03125 74.1875 65.226562 74.277344 65.757812 75.210938 C 66.136719 75.945312 66.113281 77.4375 65.539062 78.0625 C 65.007812 78.664062 64.078125 78.707031 63.28125 78.707031 C 61.355469 78.707031 59.429688 78.773438 57.484375 78.664062 C 57.351562 78.664062 57.21875 78.640625 57.128906 78.550781 C 57.039062 78.460938 57.019531 78.308594 57.019531 78.171875 C 57.019531 75.078125 57.019531 71.960938 56.996094 68.867188 C 56.972656 68.53125 57.128906 68.398438 57.4375 68.398438 C 61.023438 68.398438 64.628906 68.398438 68.214844 68.398438 C 68.414062 68.398438 68.636719 68.398438 68.835938 68.308594 C 69.367188 68.066406 69.1875 67.019531 69.167969 66.527344 C 69.144531 65.882812 69.054688 65.238281 68.855469 64.613281 C 68.324219 63.367188 67.484375 62.34375 66.246094 61.875 Z M 43.253906 71.804688 C 43.164062 71.984375 42.898438 71.984375 42.699219 71.984375 C 41.4375 71.917969 40.179688 72.183594 39.050781 72.785156 C 38.871094 72.875 38.695312 72.984375 38.496094 73.007812 C 38.253906 73.03125 38.007812 72.941406 37.789062 72.875 C 36.636719 72.519531 35.109375 72.449219 34.511719 71.25 C 34.226562 70.558594 34.269531 69.644531 34.710938 69.042969 C 35.089844 68.554688 35.6875 68.421875 36.261719 68.398438 C 37.011719 68.375 37.765625 68.398438 38.519531 68.398438 C 40.023438 68.398438 41.550781 68.398438 43.054688 68.398438 C 43.253906 68.398438 43.277344 68.511719 43.277344 68.667969 C 43.277344 69.15625 43.277344 69.644531 43.277344 70.136719 C 43.277344 70.601562 43.277344 71.070312 43.277344 71.539062 C 43.296875 71.628906 43.296875 71.738281 43.253906 71.804688 Z M 43.253906 71.804688 "/>
<path style=" stroke:none;fill-rule:nonzero;fill:rgb(92.941177%,11.372549%,14.117648%);fill-opacity:1;" d="M 105.65625 66.394531 C 105.636719 66.148438 105.4375 66.082031 105.214844 66.082031 C 100.523438 66.0625 95.832031 66.082031 91.140625 66.0625 C 86.425781 66.039062 81.734375 66.015625 77.023438 66.0625 C 76.359375 66.0625 76.648438 67.621094 76.714844 68.066406 C 76.734375 68.132812 76.734375 68.222656 76.800781 68.289062 C 76.890625 68.375 77 68.375 77.132812 68.375 C 78.304688 68.375 79.480469 68.375 80.652344 68.355469 L 87.621094 68.355469 C 87.777344 68.375 87.886719 68.445312 87.976562 68.554688 C 88.019531 68.597656 88.042969 68.667969 88.085938 68.753906 L 88.085938 69.554688 C 88.042969 69.667969 87.976562 69.734375 87.886719 69.800781 C 87.777344 69.867188 87.667969 69.867188 87.535156 69.890625 C 84.4375 70.113281 80.253906 69.132812 77.90625 71.828125 C 76.425781 73.609375 76.292969 76.390625 77.441406 78.375 C 78.238281 79.777344 79.8125 80.757812 81.402344 80.933594 C 82 80.980469 82.578125 81.046875 83.175781 81.046875 C 85.453125 81.066406 87.753906 81.046875 90.035156 81.046875 C 90.1875 81.046875 90.367188 81.023438 90.519531 81 C 90.785156 80.957031 90.851562 80.890625 90.898438 80.621094 C 90.984375 76.75 90.898438 72.875 90.917969 69 C 90.917969 68.53125 91.050781 68.421875 91.472656 68.398438 L 93.199219 68.398438 C 93.265625 68.398438 93.355469 68.398438 93.421875 68.421875 C 93.507812 68.445312 93.621094 68.464844 93.664062 68.554688 C 93.6875 68.621094 93.6875 68.6875 93.664062 68.734375 C 93.222656 70.691406 93.574219 72.875 95.457031 73.921875 C 95.875 74.144531 96.363281 74.300781 96.785156 74.542969 C 97.359375 74.898438 97.78125 75.457031 97.957031 76.101562 C 98.179688 76.882812 98.066406 77.863281 97.492188 78.460938 C 96.9375 78.863281 96.1875 78.796875 95.523438 78.796875 C 95.035156 78.796875 94.527344 78.773438 94.039062 78.773438 C 93.886719 78.773438 93.6875 78.773438 93.574219 78.886719 C 93.464844 78.996094 93.464844 79.175781 93.464844 79.332031 C 93.464844 79.753906 93.464844 80.175781 93.488281 80.601562 C 93.464844 80.890625 93.640625 81 93.929688 81.023438 C 94.835938 81.066406 95.742188 81.089844 96.652344 81.066406 C 97.316406 81.046875 98 81 98.597656 80.6875 C 99.96875 79.953125 100.324219 78.238281 100.300781 76.792969 C 100.324219 75.5 100.082031 74.007812 99.019531 73.164062 C 98.289062 72.605469 97.316406 72.449219 96.628906 71.851562 C 96.140625 71.425781 95.855469 70.804688 95.832031 70.179688 C 95.789062 68.84375 96.496094 68.445312 97.667969 68.421875 C 98.023438 68.421875 98.355469 68.421875 98.710938 68.398438 L 102.425781 68.398438 C 102.738281 68.488281 102.914062 68.710938 102.890625 69.132812 C 102.847656 72.964844 102.847656 76.816406 102.890625 80.644531 C 102.914062 80.890625 102.980469 80.957031 103.222656 81 C 103.820312 81.089844 104.441406 81.089844 105.039062 81.066406 C 105.171875 81.066406 105.304688 81.023438 105.4375 80.980469 C 105.746094 80.890625 105.65625 80.511719 105.679688 80.265625 C 105.65625 75.589844 105.769531 70.980469 105.65625 66.394531 Z M 87.179688 78.796875 C 86.140625 78.796875 85.078125 78.773438 84.039062 78.773438 C 83.195312 78.773438 82.332031 78.753906 81.515625 78.507812 C 79.898438 77.996094 79.234375 76.835938 79.414062 75.191406 C 79.457031 74.632812 79.523438 74.078125 79.8125 73.585938 C 80.320312 72.808594 81.203125 72.429688 82.066406 72.25 C 83.660156 71.9375 85.300781 72.117188 86.914062 72.027344 C 87.222656 72.003906 87.6875 71.9375 87.910156 72.207031 C 88.085938 72.40625 88.042969 72.71875 88.042969 72.964844 C 88.042969 73.785156 88.042969 74.609375 88.042969 75.433594 C 88.042969 76.324219 88.042969 77.238281 88.042969 78.128906 C 88.109375 78.664062 87.667969 78.796875 87.179688 78.796875 Z M 87.179688 78.796875 "/>
<path style=" stroke:none;fill-rule:nonzero;fill:rgb(92.941177%,11.372549%,14.117648%);fill-opacity:1;" d="M 133.804688 69.867188 C 133.5625 69.890625 133.339844 69.824219 133.320312 69.535156 C 133.320312 69.511719 133.320312 69.488281 133.320312 69.46875 L 133.320312 68.621094 C 133.339844 68.53125 133.386719 68.464844 133.429688 68.421875 C 133.671875 68.175781 134.359375 68.289062 134.667969 68.289062 C 135.863281 68.308594 137.035156 68.308594 138.230469 68.332031 C 138.34375 68.332031 138.476562 68.332031 138.542969 68.242188 C 138.609375 68.175781 138.628906 68.066406 138.652344 67.953125 C 138.695312 67.417969 138.71875 66.90625 138.675781 66.371094 C 138.675781 66.285156 138.652344 66.195312 138.585938 66.105469 C 138.496094 65.996094 138.34375 65.996094 138.210938 65.996094 C 134.933594 65.996094 131.679688 65.996094 128.40625 65.996094 C 125.417969 65.996094 122.429688 65.996094 119.421875 65.996094 C 119.289062 65.996094 119.132812 65.996094 119.046875 66.105469 C 119 66.171875 118.980469 66.261719 118.980469 66.328125 C 118.957031 66.816406 118.957031 67.332031 119 67.820312 C 119 67.929688 119.023438 68.019531 119.089844 68.109375 C 119.179688 68.222656 119.355469 68.242188 119.511719 68.242188 C 123.007812 68.289062 126.546875 68.152344 130.042969 68.289062 C 130.199219 68.355469 130.308594 68.488281 130.351562 68.644531 L 130.351562 69.46875 C 130.285156 69.625 130.199219 69.734375 130.023438 69.757812 C 126.746094 70.070312 122.71875 68.976562 120.242188 71.78125 C 118.492188 73.875 118.691406 77.59375 120.707031 79.441406 C 122.386719 80.957031 124.800781 81 126.945312 80.980469 C 128.804688 80.957031 130.664062 80.957031 132.523438 80.933594 C 132.742188 80.933594 133.007812 80.910156 133.164062 80.734375 C 133.496094 80.355469 133.296875 79.332031 133.296875 78.839844 C 133.296875 78.664062 133.296875 78.484375 133.296875 78.308594 L 133.296875 72.363281 C 133.339844 72.183594 133.472656 72.074219 133.695312 72.074219 C 134.449219 72.050781 135.222656 72.519531 135.53125 73.207031 C 135.972656 74.164062 135.574219 75.300781 135.820312 76.324219 C 135.839844 76.457031 135.90625 76.613281 136.039062 76.679688 C 136.105469 76.726562 136.195312 76.726562 136.285156 76.726562 C 136.925781 76.75 137.546875 76.75 138.1875 76.75 C 138.519531 76.769531 138.628906 76.527344 138.628906 76.234375 C 138.742188 74.632812 138.808594 72.828125 137.8125 71.472656 C 136.902344 70.335938 135.308594 69.824219 133.804688 69.867188 Z M 129.933594 78.753906 C 128.164062 78.773438 126.390625 78.863281 124.621094 78.640625 C 122.808594 78.460938 121.832031 77.503906 121.765625 75.636719 C 121.746094 74.523438 122.144531 73.320312 123.074219 72.71875 C 123.539062 72.429688 124.089844 72.296875 124.621094 72.207031 C 126.414062 71.9375 128.230469 72.050781 130.023438 72.027344 C 130.242188 72.050781 130.332031 72.207031 130.351562 72.382812 L 130.351562 78.460938 C 130.308594 78.640625 130.199219 78.773438 129.933594 78.753906 Z M 129.933594 78.753906 "/>
<path style=" stroke:none;fill-rule:nonzero;fill:rgb(92.941177%,11.372549%,14.117648%);fill-opacity:1;" d="M 115.285156 66.929688 C 114.707031 66.441406 113.933594 66.195312 113.179688 66.105469 C 111.324219 65.882812 109.152344 66.328125 108.488281 68.332031 C 108.246094 69.042969 108.203125 69.824219 108.203125 70.582031 C 108.203125 71.714844 108.246094 72.894531 108.886719 73.832031 C 110.105469 75.523438 112.714844 75.769531 114.507812 74.921875 C 116.058594 74.164062 116.5 72.851562 116.523438 71.203125 C 116.613281 69.691406 116.480469 67.953125 115.285156 66.929688 Z M 114.308594 71.695312 C 114.355469 73.097656 113.492188 73.117188 112.363281 73.050781 C 110.238281 73.253906 110.4375 72.382812 110.460938 70.648438 C 110.460938 70.402344 110.460938 70.15625 110.460938 69.914062 C 110.460938 69.332031 110.414062 68.644531 111.078125 68.445312 C 111.742188 68.242188 112.496094 68.222656 113.179688 68.308594 C 113.402344 68.332031 113.644531 68.375 113.84375 68.511719 C 114.289062 68.820312 114.332031 69.445312 114.308594 69.980469 C 114.308594 70.582031 114.308594 71.136719 114.308594 71.695312 Z M 114.308594 71.695312 "/>
<path style=" stroke:none;fill-rule:nonzero;fill:rgb(92.941177%,11.372549%,14.117648%);fill-opacity:1;" d="M 114.464844 77.015625 C 113.3125 76.390625 111.941406 76.4375 110.660156 76.4375 C 109.972656 76.4375 109.265625 76.4375 108.578125 76.457031 C 107.960938 76.480469 108.136719 77.707031 108.179688 78.105469 C 108.203125 78.238281 108.222656 78.375 108.289062 78.484375 C 108.46875 78.753906 108.820312 78.753906 109.132812 78.753906 C 109.863281 78.753906 110.570312 78.730469 111.300781 78.730469 C 112.140625 78.707031 113.226562 78.773438 113.667969 79.621094 C 113.777344 79.84375 113.824219 80.109375 113.84375 80.378906 C 113.867188 80.710938 113.976562 80.957031 114.332031 80.957031 C 114.863281 81.023438 115.394531 81.023438 115.925781 80.980469 C 116.058594 80.980469 116.214844 80.957031 116.300781 80.84375 C 116.367188 80.757812 116.390625 80.644531 116.390625 80.535156 C 116.5 79.128906 115.703125 77.683594 114.464844 77.015625 Z M 114.464844 77.015625 "/>
</g>
</svg>
